<svg width="56" height="56" viewBox="0 0 56 56" fill="none" xmlns="http://www.w3.org/2000/svg">
<path d="M28.0003 4.66667C40.8869 4.66667 51.3337 15.1134 51.3337 28C51.3337 40.8865 40.8869 51.3333 28.0003 51.3333C15.1137 51.3333 4.66699 40.8865 4.66699 28C4.66699 15.1134 15.1137 4.66667 28.0003 4.66667ZM36.2496 19.5565L24.7001 31.1059L19.7504 26.1562C18.8392 25.245 17.3618 25.245 16.4506 26.1562C15.5393 27.0674 15.5393 28.5448 16.4506 29.456L22.8852 35.8906C23.8876 36.893 25.5128 36.893 26.5152 35.8906L39.5494 22.8563C40.4606 21.9451 40.4606 20.4677 39.5494 19.5565C38.6382 18.6453 37.1608 18.6453 36.2496 19.5565Z" fill="#4ADE80"/>
</svg>