<svg width="16" height="16" viewBox="0 0 16 16" fill="none" xmlns="http://www.w3.org/2000/svg">
<path fill-rule="evenodd" clip-rule="evenodd" d="M7.66631 1.42266C7.87258 1.30357 8.12671 1.30357 8.33298 1.42266L9.66631 2.19247C9.98518 2.37656 10.0944 2.78429 9.91031 3.10315C9.72618 3.422 9.31851 3.53126 8.99964 3.34717L8.66625 3.15469V4.00005C8.66625 4.36824 8.36771 4.66669 7.99958 4.66669C7.63138 4.66669 7.33291 4.3682 7.33291 4.00001V3.15473L6.99965 3.34717C6.68078 3.53126 6.27303 3.422 6.08894 3.10315C5.90485 2.78429 6.01409 2.37656 6.33295 2.19247L7.66631 1.42266ZM4.71412 3.89684C4.89822 4.2157 4.78897 4.62343 4.47011 4.80753L4.13675 4.99999L4.86881 5.42265C5.18766 5.60675 5.29691 6.01447 5.11281 6.33333C4.92871 6.65219 4.52098 6.76141 4.20212 6.57734L3.47011 6.15469V6.53957C3.47011 6.90774 3.17163 7.20621 2.80344 7.20621C2.43525 7.20621 2.13677 6.90774 2.13677 6.53957V4.99997C2.13677 4.76179 2.26384 4.54171 2.47011 4.42262L3.80344 3.65282C4.1223 3.46873 4.53003 3.57798 4.71412 3.89684ZM11.285 3.89694C11.4692 3.57808 11.8769 3.46883 12.1958 3.65293L13.5291 4.42273C13.7354 4.54181 13.8624 4.7619 13.8624 5.00008V6.53968C13.8624 6.90788 13.5639 7.20635 13.1958 7.20635C12.8276 7.20635 12.5291 6.90788 12.5291 6.53968V6.15474L11.797 6.5774C11.4781 6.76148 11.0704 6.65222 10.8863 6.33335C10.7022 6.01448 10.8114 5.60676 11.1303 5.42268L11.8624 5.00006L11.5291 4.80763C11.2102 4.62353 11.101 4.21581 11.285 3.89694ZM5.69017 6.66666C5.87427 6.3478 6.28201 6.23855 6.60086 6.42265L7.99958 7.23021L9.39824 6.42269C9.71711 6.23859 10.1248 6.34785 10.309 6.66668C10.493 6.98555 10.3838 7.39328 10.0649 7.57741L8.66618 8.38495V10C8.66618 10.3682 8.36771 10.6667 7.99951 10.6667C7.63138 10.6667 7.33285 10.3682 7.33285 10V8.38488L5.93418 7.57735C5.61532 7.39328 5.50607 6.98555 5.69017 6.66666ZM2.80339 8.79375C3.17158 8.79375 3.47005 9.09221 3.47005 9.46041V9.84528L4.20213 9.42261C4.52099 9.23855 4.92871 9.34781 5.11281 9.66668C5.29691 9.98548 5.18765 10.3932 4.86879 10.5773L4.13672 11L4.47005 11.1925C4.78891 11.3765 4.89816 11.7843 4.71407 12.1031C4.52997 12.422 4.12225 12.5312 3.80339 12.3471L2.47005 11.5773C2.26379 11.4583 2.13672 11.2381 2.13672 11V9.46041C2.13672 9.09221 2.4352 8.79375 2.80339 8.79375ZM13.1957 8.79381C13.5639 8.79381 13.8624 9.09228 13.8624 9.46048V11.0001C13.8624 11.2383 13.7353 11.4583 13.529 11.5774L12.1957 12.3472C11.8768 12.5313 11.4691 12.4221 11.285 12.1032C11.1009 11.7843 11.2102 11.3766 11.529 11.1925L11.8624 11.0001L11.1303 10.5773C10.8114 10.3933 10.7022 9.98555 10.8863 9.66668C11.0704 9.34781 11.4781 9.23861 11.797 9.42268L12.529 9.84535V9.46048C12.529 9.09228 12.8275 8.79381 13.1957 8.79381ZM7.99951 11.3333C8.36771 11.3333 8.66618 11.6318 8.66618 12V12.8453L8.99951 12.6529C9.31838 12.4687 9.72611 12.578 9.91024 12.8969C10.0943 13.2157 9.98504 13.6235 9.66618 13.8075L8.33284 14.5773C8.12658 14.6965 7.87244 14.6965 7.66618 14.5773L6.33287 13.8075C6.01401 13.6235 5.90476 13.2157 6.08886 12.8969C6.27295 12.578 6.68064 12.4687 6.99951 12.6529L7.33285 12.8453V12C7.33285 11.6318 7.63138 11.3333 7.99951 11.3333Z" fill="#39C8EF"/>
</svg>