<svg width="185" height="148" viewBox="0 0 185 148" fill="none" xmlns="http://www.w3.org/2000/svg">
<path d="M52.096 9.29876H52.2061C54.7735 9.29876 56.8549 7.21739 56.8549 4.64999C56.8549 2.08302 54.7735 0.0012207 52.2061 0.0012207H52.096C49.5291 0.0012207 47.4473 2.08302 47.4473 4.64999C47.4473 7.21782 49.5291 9.29876 52.096 9.29876Z" fill="#00B6AF"/>
<path d="M38.8753 0H4.64877C2.0818 0 0 2.0818 0 4.64877C0 7.21617 2.0818 9.29754 4.64877 9.29754H38.8753C41.4422 9.29754 43.5241 7.21617 43.5241 4.64877C43.5241 2.0818 41.4422 0 38.8753 0Z" fill="#00B6AF"/>
<path d="M136.194 50.5308C122.053 46.6569 107.23 40.37 94.4551 32.828C92.997 31.9673 91.1867 31.9673 89.7282 32.828C76.3953 40.6994 62.742 46.4898 47.9898 50.5308C45.9693 51.0842 44.5691 52.9204 44.5691 55.0147V77.7475C44.5691 101.999 55.7641 118.058 65.1553 127.26C75.9718 137.858 87.6227 142.794 92.0919 142.794C96.5611 142.794 108.212 137.858 119.028 127.26C128.419 118.058 139.615 101.999 139.615 77.7475V55.0147C139.614 52.9204 138.214 51.0846 136.194 50.5308ZM130.317 77.7475C130.317 98.4991 120.868 112.289 112.941 120.203C103.555 129.575 94.0084 133.27 92.0919 133.492C90.1754 133.27 80.6288 129.575 71.2423 120.203C63.3157 112.289 53.8666 98.4991 53.8666 77.7475V58.5257C67.2643 54.5775 79.8259 49.2148 92.0936 42.2058C104.093 49.0386 117.192 54.6293 130.318 58.5227L130.317 77.7475Z" fill="#00B6AF"/>
<path d="M72.6037 84.3028C70.7878 82.4873 67.8453 82.4873 66.029 84.3028C64.2135 86.1183 64.2135 89.0617 66.029 90.8771L81.1455 105.994C82.0532 106.901 83.2428 107.355 84.4324 107.355C85.622 107.355 86.8116 106.902 87.7193 105.994L118.156 75.5578C119.971 73.7423 119.971 70.7989 118.156 68.983C116.34 67.1676 113.398 67.168 111.581 68.983L84.432 96.1319L72.6037 84.3028Z" fill="#00B6AF"/>
<path d="M145.895 138.068H145.784C143.217 138.068 141.135 140.149 141.135 142.716C141.135 145.283 143.217 147.365 145.784 147.365H145.895C148.461 147.365 150.543 145.283 150.543 142.716C150.543 140.149 148.461 138.068 145.895 138.068Z" fill="#00B6AF"/>
<path d="M179.533 138.067H159.116C156.548 138.067 154.467 140.148 154.467 142.715C154.467 145.282 156.549 147.364 159.116 147.364H179.533C182.1 147.364 184.182 145.282 184.182 142.715C184.182 140.148 182.1 138.067 179.533 138.067Z" fill="#00B6AF"/>
</svg>
