<svg width="149" height="149" viewBox="0 0 149 149" fill="none" xmlns="http://www.w3.org/2000/svg">
<path fill-rule="evenodd" clip-rule="evenodd" d="M74.503 0C33.3536 0 0 33.3536 0 74.503C0 115.646 33.3597 149 74.503 149C115.646 149 149 115.652 149 74.503C148.994 33.3536 115.646 0 74.503 0ZM74.503 136.35C40.343 136.35 12.6437 108.657 12.6437 74.5015C12.6437 40.3414 40.343 12.6422 74.503 12.6422C108.663 12.6422 136.352 40.3414 136.352 74.5015C136.352 108.656 108.659 136.35 74.503 136.35ZM123.804 102.89C113.973 119.929 95.5759 131.391 74.503 131.391C53.4302 131.391 35.0212 119.924 25.1902 102.89L45.967 90.8945C48.0018 89.7257 50.4046 89.8859 52.2555 91.3157C58.4078 96.0737 66.1261 98.9095 74.4979 98.9095C82.8748 98.9095 90.5816 96.0737 96.7341 91.3157C98.5911 89.88 101 89.7198 103.035 90.8945L123.799 102.89H123.804ZM48.2633 62.5367C48.2633 48.0431 60.0101 36.297 74.503 36.297C88.9966 36.297 100.732 48.0437 100.732 62.5367C100.732 77.0297 88.9854 88.7658 74.503 88.7658C60.0207 88.7658 48.2633 77.019 48.2633 62.5367Z" fill="#00B6AF"/>
</svg>
