<svg width="214" height="80" viewBox="0 0 214 80" fill="none" xmlns="http://www.w3.org/2000/svg">
<path fill-rule="evenodd" clip-rule="evenodd" d="M101.999 6.66667C86.3513 6.66667 73.666 19.3519 73.666 35C73.666 50.648 86.3513 63.3333 101.999 63.3333C108.622 63.3333 114.715 61.061 119.539 57.2533L131.713 69.4277C133.015 70.7293 135.126 70.7293 136.427 69.4277C137.729 68.126 137.729 66.0153 136.427 64.7137L124.253 52.5393C128.06 47.715 130.333 41.6227 130.333 35C130.333 19.3519 117.647 6.66667 101.999 6.66667ZM80.3327 35C80.3327 23.0338 90.0332 13.3333 101.999 13.3333C113.966 13.3333 123.666 23.0338 123.666 35C123.666 46.9663 113.966 56.6667 101.999 56.6667C90.0332 56.6667 80.3327 46.9663 80.3327 35Z" fill="#00FFCC"/>
<path d="M50.9839 23.3333C51.5732 23.3333 52.1385 23.5675 52.5552 23.9842L57.4599 28.8889C57.8767 29.3056 58.1108 29.8709 58.1108 30.4602V43.3333C58.1108 44.5607 57.1159 45.5556 55.8886 45.5556H42.5552C41.3279 45.5556 40.333 44.5607 40.333 43.3333V25.5556C40.333 24.3283 41.3279 23.3333 42.5552 23.3333H50.9839ZM49.2219 25.5556H42.5552V43.3333H55.8886V32.2222H50.8886C49.9681 32.2222 49.2219 31.476 49.2219 30.5556V25.5556ZM49.2219 40C49.8356 40 50.333 40.4974 50.333 41.1111C50.333 41.7248 49.8356 42.2222 49.2219 42.2222C48.6082 42.2222 48.1108 41.7248 48.1108 41.1111C48.1108 40.4974 48.6082 40 49.2219 40ZM49.2219 33.3333C50.756 33.3333 51.9997 34.577 51.9997 36.1111C51.9997 36.9973 51.5835 37.787 50.9401 38.2938C50.8353 38.3763 50.7267 38.4677 50.6156 38.5611C50.1626 38.942 49.668 39.3577 49.2219 39.3577C48.5275 39.3577 48.267 38.8138 48.267 38.4201C48.267 38.0266 48.5008 37.6044 48.6943 37.3663C48.9766 37.0191 49.3215 36.7401 49.5649 36.5482C49.6963 36.4447 49.7775 36.2877 49.7775 36.1111C49.7775 35.8043 49.5287 35.5556 49.2219 35.5556C48.9151 35.5556 48.6663 35.8043 48.6663 36.1111C48.6663 36.7248 48.1689 37.2222 47.5552 37.2222C46.9416 37.2222 46.4441 36.7248 46.4441 36.1111C46.4441 34.577 47.6878 33.3333 49.2219 33.3333ZM51.4441 26.0158V30H55.4283L51.4441 26.0158Z" fill="#026482"/>
<path d="M15.4282 23.3333C16.0176 23.3333 16.5828 23.5675 16.9996 23.9842L21.9042 28.8889C22.321 29.3056 22.5551 29.8709 22.5551 30.4602V43.3333C22.5551 44.5607 21.5602 45.5556 20.3329 45.5556H6.99957C5.77227 45.5556 4.77734 44.5607 4.77734 43.3333V25.5556C4.77734 24.3283 5.77227 23.3333 6.99957 23.3333H15.4282ZM13.6662 25.5556H6.99957V43.3333H20.3329V32.2222H15.3329C14.4125 32.2222 13.6662 31.476 13.6662 30.5556V25.5556ZM13.6662 40C14.2799 40 14.7773 40.4974 14.7773 41.1111C14.7773 41.7248 14.2799 42.2222 13.6662 42.2222C13.0526 42.2222 12.5551 41.7248 12.5551 41.1111C12.5551 40.4974 13.0526 40 13.6662 40ZM13.6662 33.3333C15.2003 33.3333 16.444 34.577 16.444 36.1111C16.444 36.9973 16.0278 37.787 15.3845 38.2938C15.2797 38.3763 15.171 38.4677 15.0599 38.5611C14.6069 38.942 14.1123 39.3577 13.6662 39.3577C12.9718 39.3577 12.7113 38.8138 12.7113 38.4201C12.7113 38.0266 12.9451 37.6044 13.1387 37.3663C13.4209 37.0191 13.7658 36.7401 14.0092 36.5482C14.1407 36.4447 14.2218 36.2877 14.2218 36.1111C14.2218 35.8043 13.973 35.5556 13.6662 35.5556C13.3595 35.5556 13.1107 35.8043 13.1107 36.1111C13.1107 36.7248 12.6132 37.2222 11.9996 37.2222C11.3859 37.2222 10.8885 36.7248 10.8885 36.1111C10.8885 34.577 12.1321 33.3333 13.6662 33.3333ZM15.8885 26.0158V30H19.8727L15.8885 26.0158Z" fill="#026482"/>
<path d="M102.232 33.4722C104.021 33.4722 105.472 34.9232 105.472 36.713C105.472 37.7469 104.987 38.6682 104.236 39.2594C104.114 39.3557 103.987 39.4623 103.858 39.5713C103.329 40.0157 102.752 40.5006 102.232 40.5006C101.422 40.5006 101.118 39.8661 101.118 39.4068C101.118 38.9476 101.39 38.4552 101.616 38.1774C101.945 37.7723 102.348 37.4468 102.632 37.2229C102.785 37.1021 102.88 36.9189 102.88 36.713C102.88 36.3551 102.59 36.0648 102.232 36.0648C101.874 36.0648 101.584 36.3551 101.584 36.713C101.584 37.4289 101.003 38.0093 100.287 38.0093C99.5713 38.0093 98.991 37.4289 98.991 36.713C98.991 34.9232 100.442 33.4722 102.232 33.4722Z" fill="#00FFCC"/>
<path fill-rule="evenodd" clip-rule="evenodd" d="M104.287 21.8056C104.975 21.8056 105.634 22.0787 106.121 22.5649L111.843 28.287C112.329 28.7732 112.602 29.4327 112.602 30.1203V45.1389C112.602 46.5708 111.441 47.7315 110.009 47.7315H94.4539C93.0221 47.7315 91.8613 46.5708 91.8613 45.1389V24.3981C91.8613 22.9663 93.0221 21.8056 94.4539 21.8056H104.287ZM102.232 24.3981H94.4539V45.1389H110.009V32.1759H104.176C103.102 32.1759 102.232 31.3054 102.232 30.2315V24.3981ZM104.824 24.9351V29.5833H109.473L104.824 24.9351Z" fill="#026482"/>
<path d="M102.232 41.25C102.948 41.25 103.528 41.8304 103.528 42.5463C103.528 43.2622 102.948 43.8426 102.232 43.8426C101.516 43.8426 100.935 43.2622 100.935 42.5463C100.935 41.8304 101.516 41.25 102.232 41.25Z" fill="#00FFCC"/>
<path d="M166.54 23.3333C167.129 23.3333 167.694 23.5675 168.111 23.9842L173.016 28.8889C173.432 29.3056 173.666 29.8709 173.666 30.4602V43.3333C173.666 44.5607 172.672 45.5556 171.444 45.5556H158.111C156.884 45.5556 155.889 44.5607 155.889 43.3333V25.5556C155.889 24.3283 156.884 23.3333 158.111 23.3333H166.54ZM164.778 25.5556H158.111V43.3333H171.444V32.2222H166.444C165.524 32.2222 164.778 31.476 164.778 30.5556V25.5556ZM166.545 35.1746C166.979 34.7407 167.683 34.7407 168.117 35.1746C168.55 35.6084 168.55 36.312 168.117 36.7459L164.66 40.2029C164.182 40.6802 163.408 40.6802 162.931 40.2029L161.438 38.7101C161.004 38.2762 161.004 37.5727 161.438 37.1388C161.872 36.7049 162.576 36.7049 163.01 37.1388L163.795 37.9244L166.545 35.1746ZM167 26.0158V30H170.984L167 26.0158Z" fill="#39C8EF"/>
<path d="M202.095 23.3333C202.685 23.3333 203.25 23.5675 203.667 23.9842L208.571 28.8889C208.988 29.3056 209.222 29.8709 209.222 30.4602V43.3333C209.222 44.5607 208.227 45.5556 207 45.5556H193.667C192.439 45.5556 191.444 44.5607 191.444 43.3333V25.5556C191.444 24.3283 192.439 23.3333 193.667 23.3333H202.095ZM200.333 25.5556H193.667V43.3333H207V32.2222H202C201.079 32.2222 200.333 31.476 200.333 30.5556V25.5556ZM202.101 35.1746C202.535 34.7407 203.238 34.7407 203.672 35.1746C204.106 35.6084 204.106 36.312 203.672 36.7459L200.215 40.2029C199.738 40.6802 198.964 40.6802 198.487 40.2029L196.994 38.7101C196.56 38.2762 196.56 37.5727 196.994 37.1388C197.428 36.7049 198.131 36.7049 198.565 37.1388L199.351 37.9244L202.101 35.1746ZM202.555 26.0158V30H206.54L202.555 26.0158Z" fill="#39C8EF"/>
</svg>