<svg width="56" height="56" viewBox="0 0 56 56" fill="none" xmlns="http://www.w3.org/2000/svg">
<rect width="56" height="56" rx="28" fill="#000D11"/>
<path fill-rule="evenodd" clip-rule="evenodd" d="M27 29C27.447 29 27.887 29.024 28.316 29.07C28.5798 29.098 28.8216 29.2296 28.9883 29.4359C29.155 29.6422 29.233 29.9062 29.205 30.17C29.177 30.4338 29.0454 30.6756 28.8391 30.8423C28.6328 31.009 28.3688 31.087 28.105 31.059C27.745 31.02 27.375 31 27 31C24.977 31 23.157 31.59 21.864 32.379C21.217 32.773 20.729 33.201 20.414 33.601C20.09 34.011 20 34.321 20 34.5C20 34.622 20.037 34.751 20.255 34.926C20.504 35.126 20.937 35.333 21.599 35.508C22.917 35.858 24.811 36 27 36L27.658 35.995C27.9232 35.9914 28.179 36.0933 28.3691 36.2783C28.5591 36.4634 28.6679 36.7163 28.6715 36.9815C28.6751 37.2467 28.5732 37.5025 28.3882 37.6926C28.2031 37.8826 27.9502 37.9914 27.685 37.995L27 38C24.771 38 22.665 37.86 21.087 37.442C20.302 37.234 19.563 36.936 19.003 36.486C18.41 36.01 18 35.345 18 34.5C18 33.713 18.358 32.977 18.844 32.361C19.338 31.736 20.021 31.161 20.822 30.671C22.425 29.695 24.605 29 27 29ZM34.5 29C35.1347 28.9999 35.7457 29.2412 36.209 29.675C36.6724 30.1088 36.9534 30.7026 36.995 31.336L37 31.5V32.085C37.538 32.275 37.935 32.763 37.993 33.351L38 33.5V36.5C38 36.8729 37.8611 37.2324 37.6104 37.5084C37.3597 37.7844 37.0152 37.9572 36.644 37.993L36.5 38H32.5C32.1271 38 31.7676 37.8611 31.4916 37.6104C31.2156 37.3597 31.0428 37.0152 31.007 36.644L31 36.5V33.5C31 33.2139 31.0818 32.9337 31.2357 32.6926C31.3897 32.4514 31.6094 32.2594 31.869 32.139L32 32.085V31.5C32 30.837 32.2634 30.2011 32.7322 29.7322C33.2011 29.2634 33.837 29 34.5 29ZM36 34H33V36H36V34ZM34.5 31C34.3674 31 34.2402 31.0527 34.1464 31.1464C34.0527 31.2402 34 31.3674 34 31.5V32H35V31.5C35 31.3674 34.9473 31.2402 34.8536 31.1464C34.7598 31.0527 34.6326 31 34.5 31ZM27 18C28.3261 18 29.5979 18.5268 30.5355 19.4645C31.4732 20.4021 32 21.6739 32 23C32 24.3261 31.4732 25.5979 30.5355 26.5355C29.5979 27.4732 28.3261 28 27 28C25.6739 28 24.4021 27.4732 23.4645 26.5355C22.5268 25.5979 22 24.3261 22 23C22 21.6739 22.5268 20.4021 23.4645 19.4645C24.4021 18.5268 25.6739 18 27 18ZM27 20C26.606 20 26.2159 20.0776 25.8519 20.2284C25.488 20.3791 25.1573 20.6001 24.8787 20.8787C24.6001 21.1573 24.3791 21.488 24.2284 21.8519C24.0776 22.2159 24 22.606 24 23C24 23.394 24.0776 23.7841 24.2284 24.1481C24.3791 24.512 24.6001 24.8427 24.8787 25.1213C25.1573 25.3999 25.488 25.6209 25.8519 25.7716C26.2159 25.9224 26.606 26 27 26C27.7956 26 28.5587 25.6839 29.1213 25.1213C29.6839 24.5587 30 23.7956 30 23C30 22.2044 29.6839 21.4413 29.1213 20.8787C28.5587 20.3161 27.7956 20 27 20Z" fill="#39C8EF"/>
</svg>