<svg width="56" height="56" viewBox="0 0 56 56" fill="none" xmlns="http://www.w3.org/2000/svg">
<rect width="56" height="56" rx="28" fill="#000D11"/>
<path fill-rule="evenodd" clip-rule="evenodd" d="M36 19C37.1046 19 38 19.8954 38 21V34C38 35.1046 37.1046 36 36 36H35C35 36.5523 34.5523 37 34 37C33.4477 37 33 36.5523 33 36H23C23 36.5523 22.5523 37 22 37C21.4477 37 21 36.5523 21 36H20C18.8954 36 18 35.1046 18 34V21C18 19.8954 18.8954 19 20 19H36ZM36 21H20V34H36V21ZM28 23C28.5523 23 29 23.4477 29 24V24.126C30.7252 24.5701 32 26.1362 32 28C32 28.3709 31.9495 28.7301 31.855 29.0709L31.964 29.1339C32.4423 29.41 32.6062 30.0216 32.3301 30.4999C32.0539 30.9782 31.4423 31.142 30.964 30.8659L30.8541 30.8025C30.1283 31.5416 29.1177 32 28 32C26.8823 32 25.8717 31.5416 25.1459 30.8026L25.0358 30.8661C24.5575 31.1423 23.9459 30.9784 23.6698 30.5001C23.3936 30.0218 23.5575 29.4102 24.0358 29.1341L24.145 29.0711C24.0505 28.7302 24 28.371 24 28C24 26.1362 25.2748 24.5701 27 24.126V24C27 23.4477 27.4477 23 28 23ZM28 26C26.8954 26 26 26.8954 26 28C26 28.2984 26.0653 28.5816 26.1825 28.8359L26.2759 29.0142C26.6237 29.6042 27.2656 30 28 30C28.6754 30 29.2727 29.6651 29.6349 29.1524L29.7447 28.9784C29.9073 28.6892 30 28.3554 30 28C30 26.8954 29.1046 26 28 26Z" fill="#39C8EF"/>
</svg>