<svg width="56" height="56" viewBox="0 0 56 56" fill="none" xmlns="http://www.w3.org/2000/svg">
<rect width="56" height="56" rx="28" fill="#000D11"/>
<path d="M28 18C33.5228 18 38 22.4771 38 28C38 33.5228 33.5228 38 28 38C22.4771 38 18 33.5228 18 28C18 22.4771 22.4771 18 28 18ZM28 20C23.5817 20 20 23.5817 20 28C20 32.4183 23.5817 36 28 36C32.4183 36 36 32.4183 36 28C36 23.5817 32.4183 20 28 20ZM30.8 29.8566C31.1943 29.47 31.8275 29.4762 32.2141 29.8706C32.6007 30.265 32.5944 30.8982 32.2 31.2848C31.1188 32.3447 29.6349 33 28 33C26.3651 33 24.8812 32.3447 23.8 31.2848C23.4056 30.8982 23.3993 30.265 23.7859 29.8706C24.1725 29.4762 24.8057 29.47 25.2 29.8566C25.9226 30.5649 26.9095 31 28 31C29.0905 31 30.0774 30.5649 30.8 29.8566ZM24.5 24C25.3284 24 26 24.6716 26 25.5C26 26.3284 25.3284 27 24.5 27C23.6716 27 23 26.3284 23 25.5C23 24.6716 23.6716 24 24.5 24ZM31.5 24C32.3284 24 33 24.6716 33 25.5C33 26.3284 32.3284 27 31.5 27C30.6716 27 30 26.3284 30 25.5C30 24.6716 30.6716 24 31.5 24Z" fill="#39C8EF"/>
</svg>