<svg width="80" height="80" viewBox="0 0 80 80" fill="none" xmlns="http://www.w3.org/2000/svg">
<path d="M49.4301 10.2769V35.7949C49.4301 36.6975 49.1634 37.6069 48.6301 38.5299C48.0967 39.4462 47.4336 40.1368 46.6472 40.5881C45.8609 41.0462 45.1977 41.1214 44.6712 40.8137C44.1378 40.5128 43.8711 39.9043 43.8711 39.0017V13.4838C43.8711 12.5812 44.1378 11.6718 44.6712 10.7556C45.1977 9.8325 45.8609 9.14874 46.6472 8.69062C47.3583 8.2872 47.96 8.18464 48.466 8.38293L48.6301 8.46498C49.1634 8.77267 49.4301 9.37438 49.4301 10.2769Z" fill="#30AACC"/>
<path d="M71.6655 38.906V45.2855C71.6655 47.0359 71.1185 48.8547 70.0313 50.7282C68.9442 52.6086 67.6313 53.9898 66.1066 54.8718L27.1937 77.3402C25.6621 78.2222 24.3561 78.3522 23.2621 77.7299C22.1749 77.1146 21.6279 75.9248 21.6279 74.1675V67.7881C21.6279 67.0291 21.8194 66.2633 22.2023 65.4906C22.2638 65.347 22.3459 65.2034 22.4279 65.0599C22.9613 64.1368 23.6245 63.453 24.4108 62.9949C25.1219 62.5915 25.7236 62.4889 26.2296 62.6872L26.3937 62.7693C26.4757 62.8171 26.551 62.865 26.6194 62.9402C27.0023 63.2616 27.1937 63.8154 27.1937 64.5812V70.9607L66.1066 48.4923V42.1128C66.1066 41.2103 66.3732 40.3009 66.9065 39.3778C67.4398 38.4616 68.0962 37.771 68.8826 37.3197C69.5937 36.9094 70.2023 36.8069 70.7014 37.012L70.8655 37.094C71.3989 37.3949 71.6655 37.9966 71.6655 38.906Z" fill="#30AACC"/>
<path d="M27.193 70.9607V64.5812C27.193 63.8153 27.0016 63.2615 26.6187 62.9401C26.5503 62.8649 26.475 62.8171 26.393 62.7692L26.2289 62.6871L20.752 59.9453L37.7639 50.1196L43.6853 53.0803L44.67 53.5726C45.1965 53.8803 45.8597 53.8051 46.646 53.347C47.4324 52.8957 48.0955 52.2051 48.6289 51.2889C48.9024 50.8102 49.1075 50.3384 49.2374 49.8735C49.3673 49.429 49.4289 48.9914 49.4289 48.5538C49.4289 47.6512 49.1622 47.0427 48.6289 46.7418L48.4648 46.6598L45.9418 45.4017L52.4307 41.6547L56.4717 43.6786L66.1059 48.4923L27.193 70.9607Z" fill="#33D3FF"/>
<path d="M70.7017 37.012C70.2025 36.8069 69.594 36.9095 68.8829 37.3197C68.0965 37.771 67.4401 38.4616 66.9068 39.3779C66.3735 40.3009 66.1069 41.2103 66.1069 42.1129V48.4924L56.4727 43.6787L52.4316 41.6548V35.2753C52.4316 34.3727 52.6982 33.4633 53.2316 32.5402C53.7649 31.624 54.4213 30.9334 55.2076 30.4821C56.0008 30.024 56.6572 29.9488 57.1905 30.2565L70.7017 37.012Z" fill="#33D3FF"/>
<path d="M26.23 62.6872C25.724 62.4889 25.1224 62.5914 24.4113 62.9949C23.6249 63.453 22.9617 64.1367 22.4284 65.0598C22.3463 65.2034 22.2643 65.347 22.2027 65.4906C21.8198 66.2632 21.6284 67.029 21.6284 67.788V74.1676C21.6284 75.9248 22.1754 77.1146 23.2626 77.73L9.93604 71.0633L9.58732 70.8924C8.50014 70.277 7.95312 69.0872 7.95312 67.3299V60.9504C7.95312 60.0479 8.21982 59.1385 8.75315 58.2222C9.28649 57.2991 9.94975 56.6154 10.7361 56.1573C11.5224 55.706 12.1856 55.6308 12.7189 55.9316L20.7531 59.9453L26.23 62.6872Z" fill="#33D3FF"/>
<path d="M49.4301 48.5539C49.4301 48.9915 49.3685 49.4291 49.2386 49.8736C49.1087 50.3385 48.9036 50.8103 48.6301 51.289C48.0967 52.2052 47.4336 52.8958 46.6472 53.3471C45.8609 53.8052 45.1977 53.8804 44.6712 53.5727C44.3977 53.4155 44.1925 53.183 44.0626 52.8684C43.9327 52.5676 43.8711 52.1984 43.8711 51.7608C43.8711 50.8582 44.1378 49.9488 44.6712 49.0257C45.1977 48.1095 45.8609 47.4257 46.6472 46.9676C47.3583 46.5642 47.96 46.4548 48.466 46.6599L48.6301 46.7419C49.1634 47.0428 49.4301 47.6514 49.4301 48.5539Z" fill="#30AACC"/>
<path d="M48.4654 46.6597C47.9594 46.4546 47.3578 46.564 46.6467 46.9674C45.8603 47.4255 45.1971 48.1093 44.6706 49.0255C44.1373 49.9486 43.8705 50.858 43.8705 51.7606C43.8705 52.1982 43.9321 52.5674 44.0621 52.8683L43.6859 53.0802L37.7645 50.1196L31.1595 46.817L30.9954 46.7349C30.462 46.4341 30.1953 45.8255 30.1953 44.923C30.1953 44.0204 30.462 43.111 30.9954 42.1879C31.5219 41.2717 32.1851 40.5879 32.9714 40.1298C33.7578 39.6785 34.421 39.5965 34.9543 39.9042L45.9424 45.4016L48.4654 46.6597Z" fill="#33D3FF"/>
<path d="M48.4654 8.38287C47.9594 8.18458 47.3578 8.28714 46.6467 8.69056C45.8603 9.14868 45.1971 9.83244 44.6706 10.7555C44.1373 11.6718 43.8705 12.5812 43.8705 13.4837V39.0017C43.8705 39.9042 44.1373 40.5128 44.6706 40.8136L30.9954 33.976C30.462 33.6752 30.1953 33.0666 30.1953 32.1641V6.64609C30.1953 5.74353 30.462 4.83413 30.9954 3.91789C31.5219 2.99481 32.1851 2.31105 32.9714 1.85293C33.7578 1.40165 34.421 1.32644 34.9543 1.62729L48.4654 8.38287Z" fill="#33D3FF"/>
</svg>