<svg width="56" height="56" viewBox="0 0 56 56" fill="none" xmlns="http://www.w3.org/2000/svg">
<rect width="56" height="56" rx="28" fill="#000D11"/>
<path d="M28.7022 18.1955L35.7022 20.8205C36.4829 21.1132 37 21.8594 37 22.6931V28.0558C37 31.4648 35.074 34.5812 32.0249 36.1057L28.6708 37.7827C28.2485 37.9939 27.7515 37.9939 27.3292 37.7827L23.9751 36.1057C20.926 34.5812 19 31.4648 19 28.0558V22.6931C19 21.8594 19.5171 21.1132 20.2977 20.8205L27.2978 18.1955C27.7505 18.0257 28.2495 18.0257 28.7022 18.1955ZM28 20.0681L21 22.6931V28.0558C21 30.7072 22.498 33.1311 24.8695 34.3168L28 35.8821L31.1305 34.3168C33.502 33.1311 35 30.7072 35 28.0558V22.6931L28 20.0681ZM28 24.0001C29.1046 24.0001 30 24.8955 30 26.0001C30 26.6835 29.6573 27.2867 29.1344 27.6475L29 27.7326V31.0001C29 31.5524 28.5523 32.0001 28 32.0001C27.4872 32.0001 27.0645 31.6141 27.0067 31.1167L27 31.0001V27.7326C26.4022 27.3867 26 26.7404 26 26.0001C26 24.8955 26.8954 24.0001 28 24.0001Z" fill="#39C8EF"/>
</svg>