<svg width="80" height="80" viewBox="0 0 80 80" fill="none" xmlns="http://www.w3.org/2000/svg">
<path d="M34.6494 76.4401C35.0947 76.7042 35.5475 76.9306 36.023 77.1269L34.6494 76.4401Z" stroke="#39C8EF" stroke-width="2" stroke-linecap="round" stroke-linejoin="round"/>
<path d="M69.3203 10.6515C69.0336 10.3647 68.7165 10.1534 68.3542 10.01C67.8637 9.80624 67.2977 9.75341 66.6637 9.82888L55.2524 11.5119L49.6902 12.327C49.026 12.4402 48.3694 12.6817 47.7053 13.0666C47.0486 13.444 46.3845 13.9647 45.7279 14.6138L34.4222 26.0025L34.4147 26.01L32.7996 27.6402L28.7468 31.7232C27.6675 32.8327 26.7845 34.1308 26.0977 35.6025C25.4109 37.0817 25.0713 38.5006 25.0713 39.8515V55.1949C25.0713 61.4062 26.3392 66.561 28.8902 70.6289C29.4411 71.5194 30.0524 72.3647 30.7317 73.1496C31.909 74.5232 33.2147 75.6248 34.6486 76.4399L36.0222 77.1267C38.8751 78.3644 42.1806 78.6135 45.9391 77.8814C46.2184 77.8286 46.5052 77.7456 46.7844 77.6399C47.0712 77.5267 47.3807 77.3757 47.7053 77.1871C48.0373 76.9984 48.3467 76.7946 48.6259 76.5757C48.9127 76.3569 49.192 76.1154 49.4788 75.8437C55.841 69.7308 60.9128 62.3044 64.6864 53.5496C68.46 44.7949 70.3468 36.6289 70.3468 29.0515V13.7157C70.3468 12.3572 69.9996 11.3383 69.3203 10.6515ZM50.5354 56.4025C50.5354 57.3157 50.2637 58.244 49.7203 59.1798C49.1844 60.1157 48.5128 60.8176 47.7053 61.2779C46.9053 61.7459 46.2336 61.8213 45.6902 61.5119C45.1468 61.2025 44.8751 60.5836 44.8751 59.6628V46.6817C44.8751 45.761 45.1468 44.8327 45.6902 43.8968C46.2336 42.961 46.9053 42.2591 47.7053 41.7987C48.5128 41.3383 49.1844 41.2553 49.7203 41.5647C50.2637 41.8742 50.5354 42.493 50.5354 43.4138V56.4025ZM49.7203 33.21C49.1844 34.1459 48.5128 34.8402 47.7053 35.3081C46.9053 35.7685 46.2336 35.844 45.6902 35.5345C45.1468 35.2251 44.8751 34.6138 44.8751 33.693C44.8751 32.7723 45.1468 31.844 45.6902 30.9081C46.2336 29.9723 46.9053 29.2779 47.7053 28.81C48.5128 28.3496 49.1844 28.2742 49.7203 28.5836C50.2637 28.893 50.5354 29.5044 50.5354 30.4251C50.5354 31.3459 50.2637 32.2742 49.7203 33.21Z" fill="#30AACC"/>
<path d="M50.5354 30.4253C50.5354 31.3461 50.2636 32.2744 49.7202 33.2102C49.1844 34.146 48.5127 34.8404 47.7052 35.3083C46.9052 35.7687 46.2335 35.8442 45.6901 35.5347C45.1467 35.2253 44.875 34.614 44.875 33.6932C44.875 32.7725 45.1467 31.8442 45.6901 30.9083C46.2335 29.9725 46.9052 29.2781 47.7052 28.8102C48.5127 28.3498 49.1844 28.2744 49.7202 28.5838C50.2636 28.8932 50.5354 29.5045 50.5354 30.4253Z" fill="#000D11"/>
<path d="M50.5354 43.4138V56.4025C50.5354 57.3157 50.2636 58.244 49.7202 59.1799C49.1844 60.1157 48.5127 60.8176 47.7052 61.278C46.9052 61.7459 46.2335 61.8214 45.6901 61.5119C45.1467 61.2025 44.875 60.5836 44.875 59.6629V46.6818C44.875 45.761 45.1467 44.8327 45.6901 43.8969C46.2335 42.961 46.9052 42.2591 47.7052 41.7987C48.5127 41.3384 49.1844 41.2553 49.7202 41.5648C50.2636 41.8742 50.5354 42.4931 50.5354 43.4138Z" fill="#000D11"/>
<path d="M68.3548 10.0101C67.8643 9.80631 67.2983 9.75348 66.6644 9.82895L55.253 11.512L49.6908 12.3271C49.0266 12.4403 48.37 12.6819 47.7059 13.0668C47.0493 13.4441 46.3851 13.9649 45.7285 14.6139L34.4228 26.0025L34.4153 26.0101L32.8002 27.6404L28.7474 31.7233C27.6681 32.8327 26.7851 34.1309 26.0983 35.6026C25.4115 37.0819 25.0719 38.5007 25.0719 39.8517V55.1951C25.0719 61.4064 26.3398 66.561 28.8908 70.629C29.4417 71.5195 30.053 72.3649 30.7323 73.1498C31.9096 74.5234 33.2153 75.625 34.6493 76.44L20.7473 69.5044L20.687 69.4743C18.8002 68.6215 17.1247 67.3309 15.6379 65.6026C11.8643 61.2102 9.97754 55.2177 9.97754 47.6479V32.3045C9.97754 30.9536 10.3172 29.5347 11.0039 28.0554C11.6907 26.5837 12.5738 25.2856 13.653 24.1761L30.6342 7.06673C31.2908 6.41768 31.9549 5.89693 32.6115 5.51957C33.2757 5.13466 33.9323 4.89313 34.5964 4.77992L51.57 2.2818C52.37 2.18369 53.0567 2.30444 53.6379 2.65161L53.6756 2.66672L68.3548 10.0101Z" fill="#33D3FF"/>
<path d="M68.596 10.1308L68.3545 10.01" stroke="#39C8EF" stroke-width="2" stroke-linecap="round" stroke-linejoin="round"/>
</svg>