<svg width="80" height="80" viewBox="0 0 80 80" fill="none" xmlns="http://www.w3.org/2000/svg">
<path d="M70.4275 8.91741L70.1239 8.76568C69.2136 8.40017 68.1516 8.56568 66.924 9.26913L58.0895 14.3726L50.593 18.6966L38.2826 25.8071L30.3999 30.3588L27.2067 32.2002C25.8412 32.9864 24.6689 34.2209 23.6965 35.8967C22.724 37.5726 22.2412 39.2001 22.2412 40.7656V74.9449C22.2412 76.5104 22.724 77.5724 23.6965 78.1242C24.6689 78.6828 25.8412 78.5656 27.2067 77.7724L66.924 54.8484C68.2895 54.0553 69.4551 52.8209 70.4275 51.145C71.3999 49.4691 71.8826 47.8484 71.8826 46.2829V12.0967C71.8826 10.5312 71.3999 9.47603 70.4275 8.91741ZM35.0274 42.5588C35.2688 41.7588 35.6344 40.945 36.1102 40.1243C37.0827 38.4484 38.248 37.214 39.6136 36.4278C40.9791 35.6415 42.1516 35.5243 43.124 36.076C44.0964 36.6346 44.5792 37.6898 44.5792 39.2622C44.5792 40.8346 44.0964 42.4484 43.124 44.1242C42.1516 45.8001 40.9791 47.0347 39.6136 47.8209C38.248 48.6071 37.0827 48.7242 36.1102 48.1725C35.5378 47.8484 35.1378 47.3519 34.9033 46.676C34.7309 46.2002 34.6481 45.6415 34.6481 44.9932C34.6481 44.2001 34.7722 43.3864 35.0274 42.5588ZM48.9239 53.2347C48.5515 53.8553 48.0964 54.3174 47.5585 54.6278L31.6687 63.8001C31.1308 64.1104 30.6756 64.1864 30.3032 64.0209C29.9377 63.8553 29.7516 63.4898 29.7516 62.9173C29.7516 62.407 29.8274 61.8691 29.9722 61.3174C30.0826 60.8898 30.2344 60.4553 30.4275 60.0001C30.8827 58.9518 31.5447 57.8691 32.4136 56.7519C33.324 55.5588 34.3792 54.4622 35.5792 53.4622C36.7792 52.4622 38.1239 51.5311 39.6136 50.6691C41.1032 49.8139 42.4481 49.1864 43.6481 48.8071C44.8481 48.4209 45.9033 48.2967 46.8137 48.4346C47.6827 48.6001 48.3447 48.9312 48.7998 49.4278C48.9998 49.6484 49.1584 49.8967 49.2687 50.1794C49.4136 50.5311 49.4826 50.9311 49.4826 51.3794C49.4826 52.0001 49.2963 52.6209 48.9239 53.2347ZM63.724 35.9311C63.2482 36.7518 62.662 37.3657 61.9585 37.7726L58.0618 40.0209L54.5102 42.0691C53.8067 42.476 53.2136 42.545 52.7378 42.276C52.2619 42.0002 52.0274 41.4622 52.0274 40.6553C52.0274 39.8484 52.2619 39.0346 52.7378 38.214C53.2136 37.3933 53.8067 36.7794 54.5102 36.3725L58.0895 34.3104L61.9585 32.076C62.662 31.6691 63.2482 31.6001 63.724 31.876C64.1999 32.1449 64.4411 32.6829 64.4411 33.4898C64.4411 34.2967 64.1999 35.1104 63.724 35.9311ZM63.724 27.3864C63.2482 28.2071 62.662 28.8208 61.9585 29.2277L58.0895 31.4622L54.5102 33.5242C53.8067 33.9311 53.2136 34.0002 52.7378 33.7312C52.2619 33.4553 52.0274 32.9174 52.0274 32.1105C52.0274 31.3036 52.2619 30.4898 52.7378 29.6691C53.2136 28.8484 53.8067 28.2346 54.5102 27.8277L58.0895 25.7656L61.9585 23.5311C62.662 23.1242 63.2482 23.0553 63.724 23.3243C64.1999 23.6002 64.4411 24.1381 64.4411 24.945C64.4411 25.7519 64.1999 26.5657 63.724 27.3864Z" fill="#30AACC"/>
<path d="M64.4411 33.4898C64.4411 34.2967 64.1999 35.1104 63.724 35.9311C63.2482 36.7518 62.662 37.3656 61.9585 37.7725L58.0618 40.0208L54.5102 42.0691C53.8067 42.476 53.2136 42.5449 52.7378 42.276C52.2619 42.0001 52.0273 41.4622 52.0273 40.6553C52.0273 39.8484 52.2619 39.0346 52.7378 38.2139C53.2136 37.3932 53.8067 36.7793 54.5102 36.3724L58.0895 34.3104L61.9585 32.076C62.662 31.6691 63.2482 31.6 63.724 31.8759C64.1999 32.1449 64.4411 32.6829 64.4411 33.4898Z" fill="#000D11"/>
<path d="M64.4411 24.9449C64.4411 25.7518 64.1999 26.5656 63.724 27.3863C63.2482 28.207 62.662 28.8208 61.9585 29.2277L58.0895 31.4622L54.5102 33.5243C53.8067 33.9311 53.2136 34.0001 52.7378 33.7311C52.2619 33.4553 52.0273 32.9174 52.0273 32.1105C52.0273 31.3036 52.2619 30.4898 52.7378 29.6691C53.2136 28.8484 53.8067 28.2345 54.5102 27.8276L58.0895 25.7656L61.9585 23.5311C62.662 23.1243 63.2482 23.0553 63.724 23.3243C64.1999 23.6001 64.4411 24.138 64.4411 24.9449Z" fill="#000D11"/>
<path d="M44.5795 39.2621C44.5795 40.8276 44.0967 42.4483 43.1243 44.1241C42.1519 45.8 40.9794 47.0346 39.6139 47.8208C38.2484 48.607 37.083 48.7241 36.1106 48.1724C35.5382 47.8483 35.1382 47.3517 34.9037 46.6759C34.7313 46.2 34.6484 45.6414 34.6484 44.9931C34.6484 44.2 34.7726 43.3863 35.0277 42.5587C35.2691 41.7587 35.6347 40.9448 36.1106 40.1241C37.083 38.4483 38.2484 37.2139 39.6139 36.4277C40.9794 35.6415 42.1519 35.5241 43.1243 36.0759C44.0967 36.6345 44.5795 37.6897 44.5795 39.2621Z" fill="#000D11"/>
<path d="M49.4829 51.3794C49.4829 52.0001 49.2966 52.6208 48.9242 53.2346C48.5518 53.8553 48.0967 54.3174 47.5588 54.6277L31.6691 63.8001C31.1311 64.1104 30.676 64.1864 30.3035 64.0208C29.938 63.8553 29.752 63.4897 29.752 62.9173C29.752 62.407 29.8277 61.8691 29.9726 61.3173C30.0829 60.8897 30.2347 60.4553 30.4278 60.0001C30.883 58.9518 31.545 57.8691 32.414 56.7518C33.3243 55.5587 34.3795 54.4622 35.5795 53.4622C36.7795 52.4622 38.1242 51.5311 39.6139 50.6691C41.1035 49.8139 42.4484 49.1863 43.6484 48.807C44.8484 48.4208 45.9037 48.2966 46.814 48.4346C47.683 48.6001 48.345 48.9311 48.8002 49.4277C49.0002 49.6484 49.1587 49.8966 49.2691 50.1794C49.4139 50.5311 49.4829 50.9311 49.4829 51.3794Z" fill="#000D11"/>
<path d="M70.124 8.76558C69.2137 8.40007 68.1517 8.56558 66.9241 9.26903L58.0896 14.3725L50.5931 18.6965L38.2827 25.8069L30.4 30.3586L27.2069 32.2001C25.8413 32.9863 24.669 34.2207 23.6966 35.8965C22.7242 37.5724 22.2413 39.2 22.2413 40.7655V74.9448C22.2413 76.5103 22.7242 77.5723 23.6966 78.1241L10.2069 71.3792L9.90349 71.2275C8.93108 70.6758 8.44824 69.6137 8.44824 68.0483V33.869C8.44824 32.3034 8.93108 30.6759 9.90349 29C10.8759 27.3241 12.0482 26.0897 13.4137 25.3035L53.131 2.37244C54.4965 1.58624 55.6621 1.46899 56.6345 2.02071L70.124 8.76558Z" fill="#33D3FF"/>
</svg>