<svg width="80" height="80" viewBox="0 0 80 80" fill="none" xmlns="http://www.w3.org/2000/svg">
<path d="M58.7703 13.9465C55.9167 12.6434 52.7001 12.4866 49.1289 13.4763C47.0671 14.0371 44.8898 14.9857 42.597 16.3135C41.0383 17.2125 39.5373 18.2268 38.0857 19.3485C35.562 21.3031 33.2031 23.596 31.0011 26.2351C28.9887 28.6516 27.1167 31.3568 25.3848 34.3506C24.2961 36.231 23.3312 38.0949 22.4982 39.9589C21.2446 42.73 20.2714 45.4845 19.5951 48.2227C18.7456 51.5711 18.325 54.8949 18.325 58.1774C18.325 61.4599 18.7373 64.2475 19.5703 66.6063C20.7085 69.8888 22.6466 72.3052 25.3848 73.864L8.88991 65.6166C4.18064 62.9279 1.83008 57.7073 1.83008 49.93C1.83008 42.1527 4.18064 34.2104 8.88991 26.1032C13.5909 17.9877 19.3228 11.9836 26.1022 8.06605C32.8733 4.15677 38.6136 3.53823 43.3147 6.22689L58.7703 13.9465Z" fill="#33D3FF"/>
<path d="M72.5502 66.202L56.9131 58.3834C56.9708 58.3092 57.0203 58.235 57.0698 58.1525C57.2017 57.9711 57.3336 57.7895 57.4573 57.5999L57.9605 57.8886L72.5502 66.202Z" stroke="#39C8EF" stroke-width="2" stroke-linecap="round" stroke-linejoin="round"/>
<path d="M76.8726 58.7464L61.7798 50.1443C63.4046 46.8289 64.6499 43.4804 65.5407 40.099C66.4232 36.7175 66.8684 33.4021 66.8684 30.1526C66.8684 22.3753 64.518 17.1547 59.8088 14.4742C59.4706 14.2763 59.1242 14.1031 58.7696 13.9464C55.916 12.6433 52.6993 12.4865 49.1282 13.4762C47.0663 14.037 44.8891 14.9856 42.5963 16.3134C41.0375 17.2124 39.5365 18.2267 38.085 19.3484C35.5613 21.303 33.2024 23.5959 31.0003 26.2351C28.988 28.6516 27.116 31.3567 25.384 34.3505C24.2954 36.2309 23.3304 38.0949 22.4974 39.9588C21.2438 42.7299 20.2706 45.4845 19.5943 48.2226C18.7448 51.5711 18.3242 54.8949 18.3242 58.1773C18.3242 61.4598 18.7366 64.2474 19.5696 66.6062C20.7077 69.8887 22.6459 72.3052 25.384 73.8639C30.085 76.5444 35.8169 75.9258 42.5963 72.0165C45.4252 70.3753 48.0972 68.3299 50.5962 65.8722C52.889 63.6289 54.9923 61.1299 56.9139 58.3835C56.9716 58.3093 57.021 58.2351 57.0705 58.1526C57.2025 57.9712 57.3344 57.7896 57.4582 57.5999L57.9613 57.8887L72.551 66.2021C73.1613 66.5485 73.8787 66.4825 74.7117 66.0041C75.5447 65.5175 76.2705 64.7588 76.8726 63.7114C77.4829 62.6639 77.788 61.6577 77.788 60.701C77.788 59.7443 77.4829 59.0928 76.8726 58.7464ZM54.4232 32.4619L48.0232 43.4557L43.6933 50.903L41.5323 54.6144C40.9302 55.6618 40.2046 56.4206 39.3716 56.9072C38.5387 57.3856 37.821 57.4516 37.2107 57.1052L35.5364 56.1566L30.7613 53.4351C30.1593 53.0887 29.8706 52.4454 29.8954 51.4969C29.9201 50.5567 30.2334 49.5588 30.8437 48.5114C31.4458 47.4722 32.1551 46.7134 32.9634 46.2433C33.7716 45.7815 34.4809 45.7154 35.0912 46.0618L39.4129 48.4371L49.0624 31.7938L50.1015 29.9959C50.7118 28.9485 51.4293 28.1814 52.2623 27.703C53.1035 27.2247 53.8211 27.1504 54.4232 27.4968C55.0335 27.8432 55.3385 28.4948 55.3385 29.4515C55.3385 30.4082 55.0335 31.4145 54.4232 32.4619Z" fill="#30AACC"/>
<path d="M55.3382 29.4515C55.3382 30.4164 55.0332 31.4144 54.4229 32.4618L48.0228 43.4557L43.6929 50.903L41.532 54.6144C40.9299 55.6618 40.2043 56.4206 39.3713 56.9072C38.5383 57.3856 37.8206 57.4516 37.2103 57.1052L35.5361 56.1566L30.761 53.4351C30.1589 53.0887 29.8703 52.4454 29.895 51.4969C29.9198 50.5567 30.2331 49.5588 30.8434 48.5114C31.4455 47.4722 32.1547 46.7134 32.963 46.2433C33.7712 45.7815 34.4806 45.7154 35.0909 46.0618L39.4125 48.4371L49.062 31.7938L50.1012 29.9959C50.7115 28.9485 51.4289 28.1814 52.2619 27.703C53.1031 27.2247 53.8208 27.1505 54.4229 27.4969C55.0332 27.8432 55.3382 28.4948 55.3382 29.4515Z" fill="#000D11"/>
</svg>