<svg width="33" height="32" viewBox="0 0 33 32" fill="none" xmlns="http://www.w3.org/2000/svg">
<rect x="0.5" width="32" height="32" rx="16" fill="#0C1D22"/>
<path d="M21.1663 10.6667C22.2709 10.6667 23.1663 11.5621 23.1663 12.6667V19.3333C23.1663 20.4379 22.2709 21.3333 21.1663 21.3333H11.833C10.7284 21.3333 9.83301 20.4379 9.83301 19.3333V12.6667C9.83301 11.5621 10.7284 10.6667 11.833 10.6667H21.1663ZM21.833 14.6667H11.1663V19.3333C11.1663 19.6752 11.4237 19.957 11.7553 19.9955L11.833 20H21.1663C21.5082 20 21.79 19.7427 21.8285 19.4111L21.833 19.3333V14.6667ZM19.833 16.6667C20.2012 16.6667 20.4997 16.9651 20.4997 17.3333C20.4997 17.6752 20.2423 17.957 19.9108 17.9955L19.833 18H17.833C17.4648 18 17.1663 17.7015 17.1663 17.3333C17.1663 16.9914 17.4237 16.7097 17.7553 16.6712L17.833 16.6667H19.833ZM21.1663 12H11.833C11.4648 12 11.1663 12.2985 11.1663 12.6667V13.3333H21.833V12.6667C21.833 12.2985 21.5345 12 21.1663 12Z" fill="#39C8EF"/>
</svg>