<svg width="56" height="56" viewBox="0 0 56 56" fill="none" xmlns="http://www.w3.org/2000/svg">
<rect width="56" height="56" rx="28" fill="#000D11"/>
<path fill-rule="evenodd" clip-rule="evenodd" d="M26.9199 18.8677C27.4021 18.0399 28.5981 18.0399 29.0802 18.8677L31.8752 23.6664L37.3028 24.8417C38.2391 25.0445 38.6087 26.1819 37.9704 26.8963L34.2702 31.0374L34.8296 36.5625C34.9261 37.5156 33.9586 38.2186 33.0819 37.8323L28.0001 35.5929L22.9183 37.8323C22.0416 38.2186 21.0741 37.5156 21.1706 36.5625L21.73 31.0374L18.0298 26.8963C17.3915 26.1819 17.7611 25.0445 18.6974 24.8417L24.125 23.6664L26.9199 18.8677ZM28.0001 20.987L25.6869 24.9586C25.5102 25.2619 25.2142 25.4769 24.8713 25.5512L20.3792 26.5239L23.4416 29.9513C23.6754 30.2129 23.7885 30.5609 23.7531 30.91L23.2901 35.4828L27.496 33.6294C27.8172 33.4879 28.183 33.4879 28.5041 33.6294L32.7101 35.4828L32.2471 30.91C32.2117 30.5609 32.3248 30.2129 32.5586 29.9513L35.621 26.5239L31.1289 25.5512C30.7859 25.4769 30.49 25.2619 30.3133 24.9586L28.0001 20.987Z" fill="#39C8EF"/>
</svg>