<svg width="56" height="56" viewBox="0 0 56 56" fill="none" xmlns="http://www.w3.org/2000/svg">
<rect width="56" height="56" rx="28" fill="#000D11"/>
<path d="M33.4196 19C34.0821 19 34.6977 19.3277 35.0686 19.8682L35.1561 20.0077L38.4892 25.8407C38.9087 26.5749 38.8189 27.4871 38.2805 28.1237L38.1669 28.2472L28.8838 37.5303C28.4282 37.986 27.7084 38.0163 27.2175 37.6214L27.116 37.5303L17.8329 28.2472C17.235 27.6493 17.0816 26.7456 17.4335 25.9898L17.5106 25.8407L20.8438 20.0077C21.1725 19.4325 21.7624 19.0606 22.4157 19.0068L22.5803 19H33.4196ZM33.4196 21H22.5803L19.2471 26.833L27.9999 35.5858L36.7527 26.833L33.4196 21ZM23.2928 25.2929C23.6533 24.9324 24.2205 24.9047 24.6128 25.2097L24.707 25.2929L27.9999 28.5858L31.2928 25.2929C31.6833 24.9024 32.3165 24.9024 32.707 25.2929C33.0676 25.6534 33.0953 26.2206 32.7902 26.6129L32.707 26.7071L28.8838 30.5303C28.4282 30.986 27.7084 31.0163 27.2175 30.6214L27.116 30.5303L23.2928 26.7071C22.9023 26.3166 22.9023 25.6834 23.2928 25.2929Z" fill="#39C8EF"/>
</svg>