<svg width="56" height="56" viewBox="0 0 56 56" fill="none" xmlns="http://www.w3.org/2000/svg">
<rect width="56" height="56" rx="28" fill="#000D11"/>
<path fill-rule="evenodd" clip-rule="evenodd" d="M34.4938 19.8012C36.5893 21.0221 38.0628 23.5009 37.9979 26.3931C37.917 30.0022 35.1073 33.1867 30.3194 36.0308C29.6095 36.4525 28.8612 37 28 37C27.1551 37 26.3746 36.4431 25.6806 36.0308C20.8927 33.1867 18.083 30.0022 18.0021 26.3931C17.9372 23.5009 19.4106 21.0221 21.5061 19.8012C23.4661 18.6593 25.9281 18.6532 28 20.3385C30.0719 18.6532 32.5339 18.6593 34.4938 19.8012ZM33.487 21.5293C32.0933 20.7173 30.3513 20.7462 28.8427 22.2716C28.3801 22.7394 27.6199 22.7394 27.1573 22.2716C25.6487 20.7462 23.9067 20.7173 22.513 21.5293C21.0686 22.3709 19.9524 24.1575 20.0016 26.3482C20.0579 28.8602 22.0411 31.5426 26.702 34.3113C27.1099 34.5536 27.5362 34.8651 28 34.9939C28.4638 34.8651 28.8901 34.5536 29.298 34.3113C33.9589 31.5426 35.9421 28.8602 35.9984 26.3482C36.0476 24.1575 34.9314 22.3709 33.487 21.5293Z" fill="#39C8EF"/>
</svg>