<svg width="56" height="56" viewBox="0 0 56 56" fill="none" xmlns="http://www.w3.org/2000/svg">
<rect width="56" height="56" rx="28" fill="#000D11"/>
<path fill-rule="evenodd" clip-rule="evenodd" d="M29.5858 18C30.1162 18 30.6249 18.2107 31 18.5858L35.4142 23C35.7893 23.3751 36 23.8838 36 24.4142V29H34V26H29.5C28.6716 26 28 25.3284 28 24.5V20H22V36H28V38H22C20.8954 38 20 37.1046 20 36V20C20 18.8954 20.8954 18 22 18H29.5858ZM33.3162 30.0513L36.3162 31.0513C36.7246 31.1874 37 31.5696 37 32V33.6714C37 35.8862 35.3347 37.7467 33.1335 37.9913C33.0448 38.0012 32.9552 38.0012 32.8665 37.9913C30.6653 37.7467 29 35.8862 29 33.6714V32C29 31.5696 29.2754 31.1874 29.6838 31.0513L32.6838 30.0513C32.889 29.9829 33.111 29.9829 33.3162 30.0513ZM33 32.0541L31 32.7208V33.6714C31 34.8376 31.8552 35.8219 33 35.9922C34.1448 35.8219 35 34.8376 35 33.6714V32.7208L33 32.0541ZM30 20.4142V24H33.5858L30 20.4142Z" fill="#39C8EF"/>
</svg>