<svg width="56" height="56" viewBox="0 0 56 56" fill="none" xmlns="http://www.w3.org/2000/svg">
<rect width="56" height="56" rx="28" fill="#000D11"/>
<path d="M20 20C19.4477 20 19 20.4477 19 21C19 21.5523 19.4477 22 20 22H36C36.5523 22 37 21.5523 37 21C37 20.4477 36.5523 20 36 20H20ZM19 28C19 27.4477 19.4477 27 20 27H23C23.5523 27 24 27.4477 24 28C24 28.5523 23.5523 29 23 29H20C19.4477 29 19 28.5523 19 28ZM19 35C19 34.4477 19.4477 34 20 34H24C24.5523 34 25 34.4477 25 35C25 35.5523 24.5523 36 24 36H20C19.4477 36 19 35.5523 19 35ZM26 30C26 27.2386 28.2386 25 31 25C33.7614 25 36 27.2386 36 30C36 31.0191 35.6951 31.967 35.1716 32.7574L36.7071 34.2929C37.0976 34.6834 37.0976 35.3166 36.7071 35.7071C36.3166 36.0976 35.6834 36.0976 35.2929 35.7071L33.7574 34.1716C32.967 34.6951 32.0191 35 31 35C28.2386 35 26 32.7614 26 30ZM31 27C29.3431 27 28 28.3431 28 30C28 31.6569 29.3431 33 31 33C32.6569 33 34 31.6569 34 30C34 28.3431 32.6569 27 31 27Z" fill="#39C8EF"/>
</svg>