<svg width="56" height="56" viewBox="0 0 56 56" fill="none" xmlns="http://www.w3.org/2000/svg">
<rect width="56" height="56" rx="28" fill="#000D11"/>
<path d="M28 18C33.5228 18 38 22.4771 38 28C38 33.5228 33.5228 38 28 38C22.4771 38 18 33.5228 18 28C18 22.4771 22.4771 18 28 18ZM28 20C23.5817 20 20 23.5817 20 28C20 32.4183 23.5817 36 28 36C32.4183 36 36 32.4183 36 28C36 23.5817 32.4183 20 28 20ZM27.99 26C28.5478 26 29 26.4522 29 27.01V32.1338C29.2989 32.3067 29.5 32.6299 29.5 33C29.5 33.5523 29.0523 34 28.5 34H28.01C27.4521 34 27 33.5478 27 32.99V28C26.4477 28 26 27.5523 26 27C26 26.4477 26.4477 26 27 26H27.99ZM28 23C28.5523 23 29 23.4477 29 24C29 24.5523 28.5523 25 28 25C27.4477 25 27 24.5523 27 24C27 23.4477 27.4477 23 28 23Z" fill="#39C8EF"/>
</svg>