<svg width="56" height="56" viewBox="0 0 56 56" fill="none" xmlns="http://www.w3.org/2000/svg">
<rect width="56" height="56" rx="28" fill="#000D11"/>
<path d="M36 25C36.5128 25 36.9355 25.386 36.9933 25.8834L37 26V31C37 33.1422 35.316 34.8911 33.1996 34.9951L33 35H24.1069L24.0876 35.4149L24.0532 35.934C24.0261 36.2796 23.7012 36.4908 23.4216 36.3446L23.1157 36.1804L22.7559 35.9769C22.6918 35.9397 22.6257 35.9009 22.5577 35.8603L22.1286 35.5971C22.0537 35.5498 21.9772 35.5009 21.8993 35.4502L21.4357 35.1401C21.3632 35.0902 21.293 35.0411 21.2253 34.9932L20.8488 34.7201L20.5341 34.4806C20.487 34.4439 20.4426 34.4089 20.401 34.3757C20.1652 34.188 20.1757 33.8101 20.4236 33.6138L20.7036 33.3969L21.0445 33.1446L21.444 32.863L21.9 32.5584L22.362 32.2667L22.7782 32.0184L23.1427 31.8126L23.4496 31.6482C23.725 31.5047 24.0215 31.6839 24.0479 32.0078L24.0734 32.3554L24.0967 32.7696L24.1066 33H33C34.0544 33 34.9182 32.1842 34.9945 31.1493L35 31V26C35 25.4477 35.4477 25 36 25ZM32.5784 19.6554L32.8843 19.8196L33.2441 20.0231C33.3082 20.0603 33.3743 20.0991 33.4423 20.1397L33.8713 20.403C33.9462 20.4502 34.0227 20.4992 34.1007 20.5498L34.5643 20.8598C34.6368 20.9098 34.707 20.9588 34.7747 21.0068L35.1512 21.2799L35.4658 21.5194C35.513 21.5561 35.5574 21.5912 35.599 21.6243C35.8348 21.812 35.8243 22.1899 35.5764 22.3862L35.2964 22.6031L34.9555 22.8554L34.5559 23.137L34.1 23.4416L33.638 23.7333L33.2217 23.9816L32.8572 24.1874L32.5504 24.3518C32.275 24.4953 31.9785 24.3161 31.9521 23.9922L31.9266 23.6446L31.9033 23.2304C31.8998 23.1561 31.8964 23.0793 31.8934 23H23C21.8954 23 21 23.8954 21 25V30C21 30.5523 20.5523 31 20 31C19.4477 31 19 30.5523 19 30V25C19 22.7909 20.7909 21 23 21H31.8931L31.9124 20.5852L31.935 20.2246C31.9389 20.1693 31.9429 20.1164 31.9468 20.066C31.9739 19.7204 32.2988 19.5092 32.5784 19.6554Z" fill="#39C8EF"/>
</svg>