<svg width="16" height="16" viewBox="0 0 16 16" fill="none" xmlns="http://www.w3.org/2000/svg">
<path fill-rule="evenodd" clip-rule="evenodd" d="M12.997 2.08842C13.304 1.90374 13.702 1.99466 13.8983 2.2943L14.5581 3.30122C14.7359 3.57258 14.6925 3.93252 14.4554 4.1539L14.4528 4.15634L14.4435 4.16503L14.4055 4.2009C14.3717 4.23289 14.3213 4.28084 14.2561 4.34364C14.1255 4.46924 13.9355 4.65418 13.6995 4.88957C13.2273 5.36055 12.5723 6.03248 11.843 6.8345C10.3778 8.44557 8.63828 10.5534 7.46768 12.5983C7.14068 13.1696 6.34339 13.2916 5.86981 12.7995L1.54666 8.30737C1.42146 8.1773 1.35438 8.00197 1.36077 7.82157C1.36715 7.6411 1.44645 7.47097 1.58053 7.35004L2.8873 6.17151C3.12402 5.95802 3.47876 5.94198 3.73379 6.13324L5.93951 7.78757C9.38548 4.38951 11.3397 3.08553 12.997 2.08842Z" fill="#39C8EF"/>
</svg>