<svg width="16" height="24" viewBox="0 0 16 24" fill="none" xmlns="http://www.w3.org/2000/svg">
<path fill-rule="evenodd" clip-rule="evenodd" d="M12.997 6.08842C13.304 5.90374 13.702 5.99466 13.8983 6.2943L14.5581 7.30122C14.7359 7.57258 14.6925 7.93252 14.4554 8.1539L14.4528 8.15634L14.4435 8.16503L14.4055 8.2009C14.3717 8.23289 14.3213 8.28084 14.2561 8.34364C14.1255 8.46924 13.9355 8.65418 13.6995 8.88957C13.2273 9.36055 12.5723 10.0325 11.843 10.8345C10.3778 12.4456 8.63828 14.5534 7.46768 16.5983C7.14068 17.1696 6.34339 17.2916 5.86981 16.7995L1.54666 12.3074C1.42146 12.1773 1.35438 12.002 1.36077 11.8216C1.36715 11.6411 1.44645 11.471 1.58053 11.35L2.8873 10.1715C3.12402 9.95802 3.47876 9.94198 3.73379 10.1332L5.93951 11.7876C9.38548 8.38951 11.3397 7.08553 12.997 6.08842Z" fill="#4ADE80"/>
</svg>