<svg width="16" height="16" viewBox="0 0 16 16" fill="none" xmlns="http://www.w3.org/2000/svg">
<path fill-rule="evenodd" clip-rule="evenodd" d="M7.53187 1.46365C7.79594 1.3646 8.08365 1.35222 8.35363 1.42651L8.46813 1.46365L13.1348 3.21365C13.6206 3.39579 13.9533 3.84131 13.9955 4.35178L14 4.46209V8.03721C14 10.243 12.7904 12.2651 10.8607 13.3114L10.6833 13.4038L8.4472 14.5218C8.19695 14.647 7.90735 14.6609 7.64835 14.5635L7.5528 14.5218L5.31672 13.4038C3.3438 12.4174 2.07618 10.4312 2.00332 8.23721L2 8.03721V4.46209C2 3.94335 2.30033 3.47539 2.76348 3.25664L2.86517 3.21365L7.53187 1.46365ZM8 2.71209L3.33333 4.46209V8.03721C3.33333 9.74589 4.26654 11.3128 5.75686 12.1294L5.913 12.2112L8 13.2547L10.087 12.2112C11.6153 11.4471 12.5994 9.91162 12.6634 8.21344L12.6667 8.03721V4.46209L8 2.71209ZM7.67233 5.01091C7.85342 4.94299 8.05037 4.93329 8.23599 4.98181L8.32773 5.01091L10.1944 5.71092C10.5306 5.83701 10.7621 6.14344 10.7958 6.49584L10.8 6.58482V8.01487C10.8 9.02727 10.254 9.95668 9.37937 10.4516L9.2522 10.5193L8.3578 10.9665C8.16075 11.065 7.93313 11.0773 7.72843 11.0034L7.64227 10.9665L6.74787 10.5193C5.84236 10.0666 5.25523 9.16259 5.20372 8.1589L5.20003 8.01487V6.58482C5.20003 6.2257 5.40567 5.90134 5.72382 5.74612L5.80565 5.71092L7.67233 5.01091ZM8 6.31202L6.53337 6.86201V8.01487C6.53337 8.53337 6.80681 9.01035 7.24724 9.2736L7.34413 9.32667L8 9.65468L8.65593 9.32667C9.11968 9.09483 9.424 8.63697 9.46252 8.12528L9.46667 8.01487V6.86201L8 6.31202Z" fill="#39C8EF"/>
</svg>