<svg width="33" height="32" viewBox="0 0 33 32" fill="none" xmlns="http://www.w3.org/2000/svg">
<rect x="0.5" width="32" height="32" rx="16" fill="#0C1D22"/>
<path d="M11.1667 18C11.5086 18 11.7903 18.2574 11.8288 18.5889L11.8333 18.6667V20.6667H14.5C14.8682 20.6667 15.1667 20.9651 15.1667 21.3333C15.1667 21.6752 14.9093 21.957 14.5777 21.9955L14.5 22H11.8333C11.1304 22 10.5546 21.4561 10.5037 20.7662L10.5 20.6667V18.6667C10.5 18.2985 10.7985 18 11.1667 18ZM21.8333 18C22.2015 18 22.5 18.2985 22.5 18.6667V20.6667C22.5 21.4031 21.9031 22 21.1667 22H18.5C18.1318 22 17.8333 21.7015 17.8333 21.3333C17.8333 20.9651 18.1318 20.6667 18.5 20.6667H21.1667V18.6667C21.1667 18.2985 21.4651 18 21.8333 18ZM21.8333 15.3333C22.2015 15.3333 22.5 15.6318 22.5 16C22.5 16.3419 22.2427 16.6237 21.9111 16.6622L21.8333 16.6667H11.1667C10.7985 16.6667 10.5 16.3682 10.5 16C10.5 15.6581 10.7574 15.3763 11.0889 15.3378L11.1667 15.3333H21.8333ZM14.5 10C14.8682 10 15.1667 10.2985 15.1667 10.6667C15.1667 11.0349 14.8682 11.3333 14.5 11.3333H11.8333V13.3333C11.8333 13.7015 11.5349 14 11.1667 14C10.7985 14 10.5 13.7015 10.5 13.3333V11.3333C10.5 10.597 11.097 10 11.8333 10H14.5ZM21.1667 10C21.9031 10 22.5 10.597 22.5 11.3333V13.3333C22.5 13.7015 22.2015 14 21.8333 14C21.4651 14 21.1667 13.7015 21.1667 13.3333V11.3333H18.5C18.1318 11.3333 17.8333 11.0349 17.8333 10.6667C17.8333 10.2985 18.1318 10 18.5 10H21.1667Z" fill="#94A3B8"/>
</svg>