<svg width="17" height="16" viewBox="0 0 17 16" fill="none" xmlns="http://www.w3.org/2000/svg">
<path d="M3.16667 10C3.50855 10 3.79034 10.2574 3.82885 10.5889L3.83333 10.6667V12.6667H6.5C6.86819 12.6667 7.16667 12.9651 7.16667 13.3333C7.16667 13.6752 6.9093 13.957 6.57775 13.9955L6.5 14H3.83333C3.13043 14 2.55456 13.4561 2.50366 12.7662L2.5 12.6667V10.6667C2.5 10.2985 2.79848 10 3.16667 10ZM13.8333 10C14.2015 10 14.5 10.2985 14.5 10.6667V12.6667C14.5 13.4031 13.9031 14 13.1667 14H10.5C10.1318 14 9.83333 13.7015 9.83333 13.3333C9.83333 12.9651 10.1318 12.6667 10.5 12.6667H13.1667V10.6667C13.1667 10.2985 13.4651 10 13.8333 10ZM13.8333 7.33333C14.2015 7.33333 14.5 7.6318 14.5 8C14.5 8.3419 14.2427 8.62367 13.9111 8.66218L13.8333 8.66667H3.16667C2.79848 8.66667 2.5 8.3682 2.5 8C2.5 7.6581 2.75736 7.37633 3.08892 7.33782L3.16667 7.33333H13.8333ZM6.5 2C6.86819 2 7.16667 2.29848 7.16667 2.66667C7.16667 3.03485 6.86819 3.33333 6.5 3.33333H3.83333V5.33333C3.83333 5.70152 3.53485 6 3.16667 6C2.79848 6 2.5 5.70152 2.5 5.33333V3.33333C2.5 2.59695 3.09695 2 3.83333 2H6.5ZM13.1667 2C13.9031 2 14.5 2.59695 14.5 3.33333V5.33333C14.5 5.70152 14.2015 6 13.8333 6C13.4651 6 13.1667 5.70152 13.1667 5.33333V3.33333H10.5C10.1318 3.33333 9.83333 3.03485 9.83333 2.66667C9.83333 2.29848 10.1318 2 10.5 2H13.1667Z" fill="#39C8EF"/>
</svg>