<svg width="139" height="158" viewBox="0 0 139 158" fill="none" xmlns="http://www.w3.org/2000/svg">
<path d="M138.749 39.5455C138.724 38.0695 137.711 36.795 136.275 36.4304C98.8936 26.9476 71.9258 1.18255 71.6598 0.923492C70.3845 -0.307831 68.3657 -0.307831 67.0904 0.923492C66.8245 1.18255 39.8567 26.9476 2.47479 36.4304C1.04245 36.7934 0.0298729 38.0679 0.00103365 39.5423C-0.0117839 40.3034 -0.643041 116.022 67.6928 156.718C68.2119 157.026 68.7919 157.18 69.3751 157.18C69.9583 157.18 70.5383 157.026 71.0574 156.718C83.0819 149.555 93.7864 140.793 102.912 130.64C104.139 129.275 103.968 127.148 102.57 125.957C101.211 124.801 99.2 124.963 98.0071 126.289C89.7528 135.465 80.1405 143.452 69.3751 150.075V78.5896H13.5859C8.00789 61.5989 6.84812 47.5685 6.61801 42.1105C38.5237 33.3441 62.1301 14.1338 69.3751 7.71976V78.5896H125.222C121.37 90.3801 115.416 103.57 106.099 116.326C105.047 117.766 105.298 119.775 106.715 120.861L106.719 120.864C108.174 121.98 110.298 121.696 111.38 120.217C139.182 82.217 138.78 41.3077 138.749 39.5455Z" fill="#00B6AF"/>
</svg>
